<svg width="73" height="92" viewBox="0 0 73 92" fill="none" xmlns="http://www.w3.org/2000/svg">
<path d="M9.18611 77.5255H10.9198V89.0616H8.73244V81.2844H6.07525V79.7452L6.33448 79.729C7.17701 79.675 7.81971 79.486 8.26257 79.1619C8.71624 78.8271 9.02408 78.2816 9.18611 77.5255ZM19.9422 84.5573H21.4815V86.4044H19.9422V89.0616H17.7549V86.4044H12.1489V84.3305L17.5443 77.5255H19.9422V84.5573ZM17.8035 84.5573V79.8748L14.0932 84.5573H17.8035ZM25.6248 77.5255H35.2167V79.486H31.5225V89.0616H29.319V79.486H25.6248V77.5255ZM39.7302 80.5715C39.9138 80.5715 40.0812 80.5823 40.2325 80.6039V82.4834H39.714C38.9363 82.4834 38.3368 82.6832 37.9155 83.0829C37.505 83.4718 37.2998 84.0496 37.2998 84.8166V89.0616H35.2583V80.7011H37.235V82.1918C37.6995 81.1116 38.5312 80.5715 39.7302 80.5715ZM48.845 85.0272V85.5133H42.5909C42.6665 86.2262 42.888 86.7662 43.2552 87.1335C43.6333 87.49 44.1355 87.6682 44.762 87.6682C45.691 87.6682 46.3283 87.2685 46.6739 86.4692H48.6344C48.4184 87.3225 47.9647 88.003 47.2734 88.5107C46.5821 89.0076 45.7396 89.256 44.7458 89.256C43.5037 89.256 42.4991 88.8564 41.7322 88.057C40.9653 87.2577 40.5818 86.1992 40.5818 84.8814C40.5818 83.5636 40.9599 82.505 41.716 81.7057C42.4829 80.9064 43.4821 80.5067 44.7134 80.5067C45.9772 80.5067 46.9818 80.9226 47.7271 81.7543C48.4724 82.586 48.845 83.677 48.845 85.0272ZM44.6972 82.0945C43.4983 82.0945 42.8015 82.7588 42.6071 84.0874H46.8035C46.7171 83.4718 46.4903 82.9857 46.123 82.6292C45.7558 82.2728 45.2805 82.0945 44.6972 82.0945ZM58.0538 85.0272V85.5133H51.7997C51.8753 86.2262 52.0968 86.7662 52.464 87.1335C52.8421 87.49 53.3443 87.6682 53.9708 87.6682C54.8998 87.6682 55.5371 87.2685 55.8827 86.4692H57.8432C57.6272 87.3225 57.1735 88.003 56.4822 88.5107C55.7909 89.0076 54.9484 89.256 53.9546 89.256C52.7124 89.256 51.7079 88.8564 50.941 88.057C50.1741 87.2577 49.7906 86.1992 49.7906 84.8814C49.7906 83.5636 50.1687 82.505 50.9248 81.7057C51.6917 80.9064 52.6908 80.5067 53.9222 80.5067C55.186 80.5067 56.1906 80.9226 56.9359 81.7543C57.6812 82.586 58.0538 83.677 58.0538 85.0272ZM53.906 82.0945C52.707 82.0945 52.0103 82.7588 51.8159 84.0874H56.0123C55.9259 83.4718 55.6991 82.9857 55.3318 82.6292C54.9646 82.2728 54.4893 82.0945 53.906 82.0945ZM62.6453 89.2884C60.2042 89.2884 58.9296 88.3271 58.8216 86.4044H60.8145C60.8685 86.9229 61.0359 87.2901 61.3167 87.5062C61.6084 87.7222 62.062 87.8302 62.6777 87.8302C63.7795 87.8302 64.3304 87.4954 64.3304 86.8257C64.3304 86.5232 64.2116 86.291 63.9739 86.1289C63.7363 85.9669 63.3096 85.8319 62.6939 85.7239L61.738 85.5619C59.9125 85.2594 58.9998 84.4169 58.9998 83.0343C58.9998 82.2458 59.3022 81.6301 59.9071 81.1872C60.512 80.7335 61.3653 80.5067 62.4671 80.5067C64.8543 80.5067 66.0856 81.4519 66.1613 83.3421H64.2332C64.2116 82.8453 64.0549 82.4942 63.7633 82.289C63.4716 82.0729 63.0396 81.9649 62.4671 81.9649C61.495 81.9649 61.0089 82.289 61.0089 82.9371C61.0089 83.2179 61.1169 83.4393 61.3329 83.6014C61.549 83.7526 61.9054 83.8714 62.4023 83.9578L63.4554 84.1198C64.4708 84.3035 65.2053 84.5951 65.659 84.9948C66.1234 85.3944 66.3557 85.9507 66.3557 86.6636C66.3557 87.5062 66.0316 88.1542 65.3835 88.6079C64.7354 89.0616 63.8227 89.2884 62.6453 89.2884Z" fill="#283618"/>
<path d="M32.208 33.4725L32.208 38.6898L31.6324 43.6173C31.1528 46.709 30.9253 50.9173 27.8913 55.5012C26.1646 58.1098 25.1861 63.4431 29.3302 65.0662M40.5536 33.4725L41.1292 43.6173C41.5129 46.709 42.9134 53.4142 45.4459 55.5012C46.693 57.6267 48.3237 63.3271 42.8559 65.0662M29.3302 61.2982C30.4813 61.6846 32.4958 61.8779 34.5102 64.4865C36.0094 66.4279 37.9636 65.9358 38.8269 64.4865C40.2659 63.0373 41.417 61.2982 43.7192 61.2982" stroke="#384E0B" stroke-width="1.61384" stroke-linecap="round"/>
<path d="M27.3745 10.3092C30.3645 13.0313 29.3342 18.8943 32.6273 19.3341C33.9809 19.5016 35.2334 19.3131 36.2436 18.9362C36.2032 18.9153 36.183 18.8734 36.1426 18.8315C35.9405 18.4755 35.8395 18.0149 35.7183 17.5333C35.4153 16.2769 35.1122 14.9577 33.2535 14.6855C33.0515 14.6646 32.9303 14.4761 32.9505 14.2667C32.9707 14.0573 33.1525 13.9317 33.3546 13.9526C35.6779 14.2877 36.1022 16.0675 36.4052 17.3448C36.5062 17.7845 36.6072 18.1824 36.7486 18.4546C36.7891 18.5174 36.7891 18.6012 36.7891 18.664C37.9002 18.0986 38.6275 17.3029 38.7083 16.591C39.6579 7.54518 28.1624 10.1417 27.3745 10.3092Z" fill="#283618"/>
<path d="M45.4157 28.2956C44.3853 28.9866 43.8803 30.1383 44.8096 32.2113L44.8298 32.1904C46.85 29.9289 49.0319 30.3268 50.4865 30.8293C50.6683 30.8921 50.7693 31.1015 50.7087 31.29C50.6481 31.4784 50.4461 31.5831 50.2643 31.5203C48.8905 31.0387 47.0723 30.7455 45.355 32.6929C45.2944 32.7767 45.1934 32.7976 45.1126 32.8185C45.2944 33.1536 45.4965 33.4886 45.7389 33.8655C47.8198 37.0064 52.8704 32.3788 57.113 34.5565C56.8705 33.6561 53.5573 22.7467 45.4157 28.2956Z" fill="#283618"/>
<path d="M48.5463 37.0066C48.0008 37.4882 47.5564 37.9489 47.2129 38.3886C47.3139 38.4096 47.3947 38.4724 47.4351 38.5561C49.0312 41.5086 52.0212 41.3201 52.3646 41.2992C52.5666 41.2783 52.7283 41.4248 52.7485 41.6342C52.7687 41.8436 52.6273 42.0111 52.4252 42.0321C52.2838 42.053 52.1222 42.053 51.9808 42.053C50.3039 42.053 48.1018 41.2573 46.8291 38.9121C46.8291 38.9121 46.8291 38.9121 46.8291 38.8912C45.6371 40.6082 45.8997 41.8436 46.7483 42.8068C53.9404 51.036 60.3649 40.3779 60.8498 39.5193C55.7587 40.6501 51.5969 34.2636 48.5463 37.0066Z" fill="#283618"/>
<path d="M17.5559 24.3176C16.162 24.0663 13.6366 23.9407 12.4043 25.8252C12.3436 25.9299 12.2224 25.9927 12.1012 25.9927C12.0406 25.9927 11.9598 25.9718 11.8992 25.9299C11.7376 25.8252 11.6972 25.5949 11.7982 25.4274C13.2326 23.2287 15.9801 23.3125 17.5761 23.5847C17.3135 22.7681 16.7478 22.3283 16.0407 22.098C6.7677 19.0827 6.48486 30.5366 6.48486 31.4579C9.95973 28.1285 16.0609 31.1648 17.2125 27.5422C17.6569 26.1602 17.7984 25.1342 17.7378 24.3385C17.6772 24.3385 17.6165 24.3385 17.5559 24.3176Z" fill="#283618"/>
<path d="M19.9605 10.5605C19.9403 10.3511 20.0817 10.1836 20.2635 10.1417C20.4656 10.1208 20.6272 10.2674 20.6676 10.4558C21.011 13.3664 23.3343 13.8899 24.7283 14.183C24.8293 14.204 24.9101 14.2249 25.0111 14.2458C25.092 14.2668 25.1526 14.3087 25.193 14.3505C25.7182 13.5339 25.9809 12.2147 25.6576 10.2883C25.0919 6.89611 19.516 8.15247 16.7685 5.17908C16.6473 5.97477 14.9301 16.7795 23.6172 15.4184C24.001 15.3556 24.3647 15.1881 24.6677 14.9368C24.6273 14.9368 24.6071 14.9159 24.5667 14.9159C23.0919 14.6018 20.3646 13.9736 19.9605 10.5605Z" fill="#283618"/>
<path d="M37.0324 6.28871C37.0122 -2.81993 26.9716 0.572257 26.2241 0.823529C29.4767 3.18968 29.1333 9.09459 32.4465 9.15741C33.295 9.17835 34.0021 9.09459 34.5879 8.92708C34.5879 8.90614 34.5879 8.8852 34.5677 8.84332C34.5677 8.67581 34.5677 8.46641 34.5677 8.27796C34.5879 6.87502 34.6283 5.13705 32.3455 4.13196C32.1636 4.0482 32.0828 3.8388 32.1636 3.65035C32.2445 3.46189 32.4465 3.37814 32.6283 3.46189C35.3556 4.67638 35.3152 6.85408 35.295 8.2989C35.295 8.44547 35.295 8.57111 35.295 8.69675C36.5072 8.13138 37.0324 7.18911 37.0324 6.28871Z" fill="#283618"/>
<path d="M22.4255 42.5347C22.3649 42.6394 22.2437 42.7022 22.1224 42.7022C22.0618 42.7022 22.0012 42.6812 21.9406 42.6394C21.779 42.5347 21.7184 42.3043 21.8194 42.1368C23.1124 40.001 26.0216 39.6869 27.7388 39.7078C27.3752 38.0746 26.466 37.5092 25.3953 37.4673C15.4353 36.9229 17.9405 48.3558 18.1627 49.2562C20.8093 45.0474 27.5974 46.4294 27.8802 42.5556C27.9408 41.739 27.9206 41.048 27.86 40.4617C26.6277 40.4198 23.5972 40.5873 22.4255 42.5347Z" fill="#283618"/>
<path d="M42.6897 9.6385C42.8513 10.518 43.4978 11.3137 44.7504 11.6277C44.7504 11.4812 44.7504 11.3137 44.7504 11.1461C44.7302 9.70132 44.6898 7.50268 47.3969 6.30914C47.5787 6.22538 47.7808 6.30914 47.8616 6.49759C47.9424 6.68605 47.8616 6.89544 47.6798 6.9792C45.3969 7.98429 45.4171 9.7432 45.4575 11.1252C45.4575 11.3346 45.4575 11.523 45.4575 11.6906C45.4575 11.7115 45.4575 11.7115 45.4575 11.7324C46.0837 11.7953 46.8312 11.7324 47.7 11.544C50.9324 10.832 49.5182 5.11559 52.286 2.1422C51.4981 2.05844 41.0331 0.697378 42.6897 9.6385Z" fill="#283618"/>
<path d="M16.5057 36.4005C15.6572 36.7774 14.3844 37.2381 13.0914 37.2381C12.1621 37.2381 11.2328 37.0078 10.4449 36.3586C10.2833 36.233 10.2631 36.0027 10.3843 35.8352C10.5055 35.6676 10.7277 35.6467 10.8893 35.7723C12.5662 37.1543 15.1925 36.1911 16.243 35.7095C16.3238 35.6676 16.4249 35.6676 16.5057 35.7095C16.2834 35.0395 15.7986 34.2647 14.9703 33.3224C12.748 30.7678 8.76806 35.542 4.72754 34.1181C5.05078 34.8719 9.27313 44.2109 15.8996 38.2432C16.4451 37.7616 16.7683 37.1334 16.6471 36.2958C16.6067 36.3377 16.5663 36.3796 16.5057 36.4005Z" fill="#283618"/>
<path d="M23.1518 31.8143C22.9902 31.9399 22.7679 31.8981 22.6467 31.7515C22.5255 31.584 22.5659 31.3536 22.7073 31.228C24.6266 29.6994 27.3135 30.5789 28.7883 31.2489C29.1115 29.155 28.3842 28.2965 27.2933 27.9615C18.8689 25.365 18.7477 35.6881 18.7679 36.5047C21.879 33.4685 27.4145 36.1069 28.4044 32.8403C28.5054 32.5262 28.5661 32.254 28.6469 31.9818C28.6065 31.9818 28.5863 31.9609 28.5459 31.9609C27.5155 31.4583 24.8488 30.4742 23.1518 31.8143Z" fill="#283618"/>
<path d="M49.4371 13.0317C46.6896 16.0051 41.0732 14.6859 40.5075 18.0571C39.9419 21.4493 41.4975 24.2761 42.8511 24.4855C42.8713 24.4855 42.8915 24.4855 42.8915 24.4855C45.3966 22.8732 45.2956 20.193 45.2148 19.4182C45.1946 19.2088 45.336 19.0413 45.5178 19.0203C45.7198 18.9994 45.8815 19.146 45.9017 19.3344C46.0027 20.1511 46.0835 22.7476 43.942 24.5902C51.3766 24.7787 49.5584 13.8064 49.4371 13.0317Z" fill="#283618"/>
<path d="M60.8501 21.4482C57.9005 18.4539 55.8197 19.5637 54.6479 20.5478C54.4863 20.6735 54.3045 20.841 54.1429 21.0085C56.9914 21.8251 57.4561 24.0447 57.7389 25.4058L57.7591 25.4686C57.7995 25.657 57.6783 25.8664 57.4965 25.9083C57.4763 25.9083 57.4358 25.9083 57.4156 25.9083C57.254 25.9083 57.1126 25.7827 57.0722 25.6152L57.052 25.5523C56.749 24.1494 56.3449 22.223 53.5974 21.6157C52.3852 23.1862 51.6781 25.5523 54.6479 27.4369C59.3753 30.4312 59.3753 29.8449 60.8501 31.9389C61.9208 30.159 63.4966 24.1494 60.8501 21.4482Z" fill="#283618"/>
<path d="M57.1941 5.2002C56.285 9.22056 50.7899 11.0213 51.9617 14.2251C52.4061 15.4396 53.0728 16.4237 53.7799 17.1566L53.8001 17.1357C53.9213 17.01 54.0627 16.9053 54.2244 16.7587C55.2749 15.8793 56.5678 14.7695 55.8406 12.2987C55.7799 12.1102 55.881 11.9008 56.083 11.838C56.2648 11.7752 56.4668 11.8799 56.5274 12.0893C57.3961 15.0208 55.7799 16.4028 54.689 17.3241C54.5678 17.4288 54.4466 17.5335 54.3254 17.6382C55.3759 18.4967 56.4668 18.8108 57.1335 18.5386C65.2751 15.1674 57.6992 5.82838 57.1941 5.2002Z" fill="#283618"/>
<path d="M29.6976 23.271C28.1824 14.3089 18.2024 19.5856 17.4954 19.9626C21.0914 21.7215 21.4752 27.417 24.748 26.8935C26.2026 26.6632 27.3945 26.1816 28.243 25.6162C28.2228 25.5953 28.2228 25.5743 28.2026 25.5534C28.041 25.2602 27.9198 24.9252 27.7986 24.5692C27.3743 23.3547 26.9097 22.1193 24.9096 21.8262C24.7076 21.8052 24.5864 21.6168 24.6066 21.4074C24.6268 21.198 24.8086 21.0723 25.0107 21.0933C27.4349 21.4493 28.0208 23.1035 28.4653 24.3179C28.5865 24.632 28.6875 24.9252 28.8087 25.1765C29.4956 24.5692 29.8188 23.8992 29.6976 23.271Z" fill="#283618"/>
</svg>
